<svg width="112" height="112" viewBox="0 0 112 112" fill="none" xmlns="http://www.w3.org/2000/svg">
<g clip-path="url(#clip0_633_44)">
<path d="M14 112V0" stroke="#B5B1A1" stroke-width="0.14"/>
<path d="M28 112V0" stroke="#B5B1A1" stroke-width="0.14"/>
<path d="M42 112V0" stroke="#B5B1A1" stroke-width="0.14"/>
<path d="M56 112V0" stroke="#B5B1A1" stroke-width="0.14"/>
<path d="M70 112V0" stroke="#B5B1A1" stroke-width="0.14"/>
<path d="M84 112V0" stroke="#B5B1A1" stroke-width="0.14"/>
<path d="M98 112V0" stroke="#B5B1A1" stroke-width="0.14"/>
<path d="M112 112V0" stroke="#B5B1A1" stroke-width="0.14"/>
<path d="M0 112V0" stroke="#B5B1A1" stroke-width="0.14"/>
<path d="M0 14L112 14" stroke="#B5B1A1" stroke-width="0.14"/>
<path d="M0 -1.94763e-07L112 0" stroke="#B5B1A1" stroke-width="0.14"/>
<path d="M0 28L112 28" stroke="#B5B1A1" stroke-width="0.14"/>
<path d="M0 42L112 42" stroke="#B5B1A1" stroke-width="0.14"/>
<path d="M0 56L112 56" stroke="#B5B1A1" stroke-width="0.14"/>
<path d="M0 70L112 70" stroke="#B5B1A1" stroke-width="0.14"/>
<path d="M0 84L112 84" stroke="#B5B1A1" stroke-width="0.14"/>
<path d="M0 98L112 98" stroke="#B5B1A1" stroke-width="0.14"/>
<path d="M0 112L112 112" stroke="#B5B1A1" stroke-width="0.14"/>
</g>
<defs>
<clipPath id="clip0_633_44">
<rect width="112" height="112" fill="white"/>
</clipPath>
</defs>
</svg>
